# xmcd
#
# Track frame offsets:
#	150
#	15961
#	29125
#	39771
#	55419
#	67617
#	79921
#	91875
#	104415
#	120079
#	133555
#	143406
#	157344
#	170320
#	184147
#
# Disc length: 2629 seconds
#
# Revision: 1
# Processed by: cddbd v1.5.2PL0 Copyright (c) Steve Scherf et al.
# Submitted via: audiograbber 1.83.01
#
DISCID=b50a430f
DTITLE=Perry Como - PERRY COMO - Red Collection [CD 2)
DYEAR=1900
DGENRE=Crooner
TTITLE0=Prisoner of love
TTITLE1=May be (with Eddie Fisher)
TTITLE2=Act of contrition
TTITLE3=Onward , Christian soldiers
TTITLE4=In my little red book
TTITLE5=Noodlin' rag
TTITLE6=Papa loves mambo
TTITLE7=Abide with me
TTITLE8=Some enchanted evening
TTITLE9=If wishes were kisses
TTITLE10=You won't be satisfied
TTITLE11=Rollin' stone
TTITLE12=Mr. Meadowlark
TTITLE13=A garden in the rain
TTITLE14=May I never love again
EXTD=
EXTT0=
EXTT1=
EXTT2=
EXTT3=
EXTT4=
EXTT5=
EXTT6=
EXTT7=
EXTT8=
EXTT9=
EXTT10=
EXTT11=
EXTT12=
EXTT13=
EXTT14=
PLAYORDER=
